<?xml version="1.0" encoding="utf-8"?>
<!-- Generator: Adobe Illustrator 16.0.0, SVG Export Plug-In . SVG Version: 6.00 Build 0)  -->
<!DOCTYPE svg PUBLIC "-//W3C//DTD SVG 1.1 Basic//EN" "http://www.w3.org/Graphics/SVG/1.1/DTD/svg11-basic.dtd">
<svg version="1.1" baseProfile="basic" id="Calque_1"
	 xmlns="http://www.w3.org/2000/svg" xmlns:xlink="http://www.w3.org/1999/xlink" x="0px" y="0px" width="120px" height="136px"
	 viewBox="0 0 64 72.31" xml:space="preserve">
<g>
	<path fill-rule="evenodd" clip-rule="evenodd" fill="#008150" d="M64,32C64,14.328,49.673,0,32,0S0,14.328,0,32
		c0,14.227,9.288,26.28,22.128,30.441L32,72.314l9.872-9.873C54.712,58.28,64,46.228,64,32z"/>
</g>
<circle fill="none" stroke="#FFFFFF" stroke-width="1.6429" stroke-miterlimit="10" cx="32" cy="31.739" r="10.112"/>
<g>
	
		<line fill="none" stroke="#FFFFFF" stroke-width="1.6429" stroke-linecap="round" stroke-miterlimit="10" x1="27.604" y1="31.519" x2="32" y2="33.497"/>
	
		<line fill="none" stroke="#FFFFFF" stroke-width="1.6429" stroke-linecap="round" stroke-miterlimit="10" x1="36.451" y1="29.541" x2="32" y2="33.497"/>
</g>
<path fill="#FFFFFF" d="M32,21.825c3.018,0,5.717,1.329,7.57,3.424c0.003-0.037,0.014-0.074,0.014-0.112l-1.759-10.845
	c0-1.457-1.182-2.638-2.638-2.638h-6.375c-1.457,0-2.638,1.181-2.638,2.638l-1.759,10.845c0,0.038,0.01,0.075,0.014,0.112
	C26.283,23.154,28.983,21.825,32,21.825z"/>
<path fill="#FFFFFF" d="M32,41.484c3.018,0,5.717-1.329,7.57-3.424c0.003,0.037,0.014,0.073,0.014,0.111l-1.759,10.846
	c0,1.456-1.182,2.638-2.638,2.638h-6.375c-1.457,0-2.638-1.182-2.638-2.638l-1.759-10.846c0-0.038,0.01-0.074,0.014-0.111
	C26.283,40.155,28.983,41.484,32,41.484z"/>
</svg>
