<?xml version="1.0" encoding="utf-8"?>
<!-- Generator: Adobe Illustrator 16.0.0, SVG Export Plug-In . SVG Version: 6.00 Build 0)  -->
<!DOCTYPE svg PUBLIC "-//W3C//DTD SVG 1.1 Basic//EN" "http://www.w3.org/Graphics/SVG/1.1/DTD/svg11-basic.dtd">
<svg version="1.1" baseProfile="basic" xmlns="http://www.w3.org/2000/svg" xmlns:xlink="http://www.w3.org/1999/xlink" x="0px"
	 y="0px" width="120px" height="136px" viewBox="0 0 64 72.31" xml:space="preserve">
<g id="Calque_1">
	<g>
		<path fill-rule="evenodd" clip-rule="evenodd" fill="#008150" d="M64,32C64,14.328,49.673,0,32,0S0,14.328,0,32
			c0,14.227,9.288,26.28,22.128,30.441L32,72.314l9.872-9.873C54.712,58.28,64,46.228,64,32z"/>
	</g>
</g>
<g id="Calque_2">
	<path fill="#FFFFFF" d="M43.303,34.901h-5.811H35.92c-2.768,0-5.013-2.245-5.013-5.014s2.245-5.014,5.013-5.014h7.383
		c0.119,0,0.234,0.01,0.352,0.018h1.703v-2.376c0-0.837-0.68-1.516-1.518-1.516H20.516C19.678,21,19,21.679,19,22.516v20.041
		c0,0.837,0.678,1.516,1.516,1.516H43.84c0.838,0,1.518-0.679,1.518-1.516v-7.655H43.303z"/>
	<path fill="#FFFFFF" d="M45.357,25.968h-3.004c-0.092-0.007-0.182-0.014-0.275-0.014h-5.791c-2.174,0-3.935,1.761-3.935,3.933
		c0,2.172,1.761,3.934,3.935,3.934h1.232h4.559h3.279c0.906,0,1.643-0.736,1.643-1.644v-4.566
		C47,26.704,46.264,25.968,45.357,25.968z M35.926,31.498c-0.889,0-1.609-0.721-1.609-1.609c0-0.889,0.721-1.609,1.609-1.609
		s1.609,0.72,1.609,1.609C37.535,30.777,36.814,31.498,35.926,31.498z"/>
</g>
</svg>
