<?xml version="1.0" encoding="utf-8"?>
<!-- Generator: Adobe Illustrator 16.0.0, SVG Export Plug-In . SVG Version: 6.00 Build 0)  -->
<!DOCTYPE svg PUBLIC "-//W3C//DTD SVG 1.1 Basic//EN" "http://www.w3.org/Graphics/SVG/1.1/DTD/svg11-basic.dtd">
<svg version="1.1" baseProfile="basic" xmlns="http://www.w3.org/2000/svg" xmlns:xlink="http://www.w3.org/1999/xlink" x="0px"
	 y="0px" width="120px" height="136px" viewBox="0 0 64 72.31" xml:space="preserve">
<g id="Calque_1">
	<g>
		<path fill-rule="evenodd" clip-rule="evenodd" fill="#008150" d="M64,32C64,14.328,49.673,0,32,0S0,14.328,0,32
			c0,14.227,9.288,26.28,22.128,30.441L32,72.314l9.872-9.873C54.712,58.28,64,46.228,64,32z"/>
	</g>
</g>
<g id="Calque_2">
	<path fill="#FFFFFF" d="M39.63,16H24.369c-0.948,0-1.717,0.769-1.717,1.717v29.566c0,0.949,0.769,1.717,1.717,1.717H39.63
		c0.948,0,1.717-0.768,1.717-1.717V17.717C41.347,16.769,40.578,16,39.63,16z M32,46.52c-0.948,0-1.717-0.768-1.717-1.717
		c0-0.947,0.769-1.717,1.717-1.717c0.948,0,1.717,0.77,1.717,1.717C33.717,45.752,32.948,46.52,32,46.52z M39.249,41.18H24.75
		V20.769h14.499V41.18z"/>
</g>
</svg>
